<svg width="30" height="30" viewBox="0 0 30 30" fill="none" xmlns="http://www.w3.org/2000/svg">
<rect width="30" height="30" rx="7" fill="#FF8200"/>
<path d="M14.1152 22.2304C18.5972 22.2304 22.2304 18.5972 22.2304 14.1152C22.2304 9.63322 18.5972 6 14.1152 6C9.63322 6 6 9.63322 6 14.1152C6 18.5972 9.63322 22.2304 14.1152 22.2304Z" stroke="white" stroke-width="2" stroke-linejoin="round"/>
<path d="M16.8159 10.9373C16.4616 10.5823 16.0407 10.3007 15.5773 10.1088C15.1138 9.91684 14.6171 9.81831 14.1155 9.81885C13.6139 9.81831 13.1171 9.91684 12.6537 10.1088C12.1903 10.3007 11.7694 10.5823 11.415 10.9373M19.9498 19.9495L24.0003 23.9999" stroke="white" stroke-width="2" stroke-linecap="round" stroke-linejoin="round"/>
</svg>
