<svg xmlns="http://www.w3.org/2000/svg" width="30" height="30" fill="none" viewBox="0 0 30 30"><rect width="30" height="30" fill="#FF8200" rx="7"/><path fill="#fff" d="M21.3 7.8H19.5V6.9C19.5 6.66131 19.4052 6.43239 19.2364 6.2636C19.0676 6.09482 18.8387 6 18.6 6C18.3613 6 18.1324 6.09482 17.9636 6.2636C17.7948 6.43239 17.7 6.66131 17.7 6.9V7.8H12.3V6.9C12.3 6.66131 12.2052 6.43239 12.0364 6.2636C11.8676 6.09482 11.6387 6 11.4 6C11.1613 6 10.9324 6.09482 10.7636 6.2636C10.5948 6.43239 10.5 6.66131 10.5 6.9V7.8H8.7C7.98392 7.8 7.29716 8.08446 6.79081 8.59081C6.28446 9.09716 6 9.78392 6 10.5V21.3C6 22.0161 6.28446 22.7028 6.79081 23.2092C7.29716 23.7155 7.98392 24 8.7 24H21.3C22.0161 24 22.7028 23.7155 23.2092 23.2092C23.7155 22.7028 24 22.0161 24 21.3V10.5C24 9.78392 23.7155 9.09716 23.2092 8.59081C22.7028 8.08446 22.0161 7.8 21.3 7.8ZM22.2 21.3C22.2 21.5387 22.1052 21.7676 21.9364 21.9364C21.7676 22.1052 21.5387 22.2 21.3 22.2H8.7C8.46131 22.2 8.23239 22.1052 8.0636 21.9364C7.89482 21.7676 7.8 21.5387 7.8 21.3V15H22.2V21.3ZM22.2 13.2H7.8V10.5C7.8 10.2613 7.89482 10.0324 8.0636 9.8636C8.23239 9.69482 8.46131 9.6 8.7 9.6H10.5V10.5C10.5 10.7387 10.5948 10.9676 10.7636 11.1364C10.9324 11.3052 11.1613 11.4 11.4 11.4C11.6387 11.4 11.8676 11.3052 12.0364 11.1364C12.2052 10.9676 12.3 10.7387 12.3 10.5V9.6H17.7V10.5C17.7 10.7387 17.7948 10.9676 17.9636 11.1364C18.1324 11.3052 18.3613 11.4 18.6 11.4C18.8387 11.4 19.0676 11.3052 19.2364 11.1364C19.4052 10.9676 19.5 10.7387 19.5 10.5V9.6H21.3C21.5387 9.6 21.7676 9.69482 21.9364 9.8636C22.1052 10.0324 22.2 10.2613 22.2 10.5V13.2Z"/></svg>